<svg width="1681" height="740" viewBox="0 0 1681 740" fill="none" xmlns="http://www.w3.org/2000/svg">
<g filter="url(#filter0_d_191_988)">
<rect x="430.004" y="0.318359" width="800.833" height="327.614" rx="50" fill="#312E25"/>
<rect x="431.254" y="1.56836" width="798.333" height="325.114" rx="48.75" stroke="#E48600" stroke-width="2.5"/>
</g>
<rect x="504.055" y="86.0195" width="652.727" height="156.939" rx="23.75" fill="#171717" stroke="#E48600" stroke-width="2.5"/>
<path d="M744.092 192.807V143.807H768.032C774.192 143.807 778.812 144.973 781.892 147.307C785.019 149.64 786.582 152.72 786.582 156.547C786.582 159.113 785.952 161.353 784.692 163.267C783.432 165.133 781.706 166.58 779.512 167.607C777.319 168.633 774.799 169.147 771.952 169.147L773.282 166.277C776.362 166.277 779.092 166.79 781.472 167.817C783.852 168.797 785.696 170.267 787.002 172.227C788.356 174.187 789.032 176.59 789.032 179.437C789.032 183.637 787.376 186.927 784.062 189.307C780.749 191.64 775.872 192.807 769.432 192.807H744.092ZM755.362 184.267H768.592C771.532 184.267 773.749 183.8 775.242 182.867C776.782 181.887 777.552 180.347 777.552 178.247C777.552 176.193 776.782 174.677 775.242 173.697C773.749 172.67 771.532 172.157 768.592 172.157H754.522V163.897H766.632C769.386 163.897 771.486 163.43 772.932 162.497C774.426 161.517 775.172 160.047 775.172 158.087C775.172 156.173 774.426 154.75 772.932 153.817C771.486 152.837 769.386 152.347 766.632 152.347H755.362V184.267ZM796.848 192.807V155.147H807.768V192.807H796.848ZM802.308 149.897C800.301 149.897 798.668 149.313 797.408 148.147C796.148 146.98 795.518 145.533 795.518 143.807C795.518 142.08 796.148 140.633 797.408 139.467C798.668 138.3 800.301 137.717 802.308 137.717C804.315 137.717 805.948 138.277 807.208 139.397C808.468 140.47 809.098 141.87 809.098 143.597C809.098 145.417 808.468 146.933 807.208 148.147C805.995 149.313 804.361 149.897 802.308 149.897ZM840.793 154.587C843.779 154.587 846.439 155.193 848.773 156.407C851.153 157.573 853.019 159.393 854.373 161.867C855.726 164.293 856.403 167.42 856.403 171.247V192.807H845.483V172.927C845.483 169.893 844.806 167.653 843.453 166.207C842.146 164.76 840.279 164.037 837.853 164.037C836.126 164.037 834.563 164.41 833.163 165.157C831.809 165.857 830.736 166.953 829.943 168.447C829.196 169.94 828.823 171.853 828.823 174.187V192.807H817.903V155.147H828.333V165.577L826.373 162.427C827.726 159.907 829.663 157.97 832.183 156.617C834.703 155.263 837.573 154.587 840.793 154.587ZM874.227 192.807L860.647 155.147H870.937L882.207 187.557H877.307L889.067 155.147H898.307L909.717 187.557H904.817L916.437 155.147H926.097L912.447 192.807H901.877L891.867 165.017H895.087L884.727 192.807H874.227ZM953.044 192.807V185.457L952.344 183.847V170.687C952.344 168.353 951.62 166.533 950.174 165.227C948.774 163.92 946.604 163.267 943.664 163.267C941.657 163.267 939.674 163.593 937.714 164.247C935.8 164.853 934.167 165.693 932.814 166.767L928.894 159.137C930.947 157.69 933.42 156.57 936.314 155.777C939.207 154.983 942.147 154.587 945.134 154.587C950.874 154.587 955.33 155.94 958.504 158.647C961.677 161.353 963.264 165.577 963.264 171.317V192.807H953.044ZM941.564 193.367C938.624 193.367 936.104 192.877 934.004 191.897C931.904 190.87 930.294 189.493 929.174 187.767C928.054 186.04 927.494 184.103 927.494 181.957C927.494 179.717 928.03 177.757 929.104 176.077C930.224 174.397 931.974 173.09 934.354 172.157C936.734 171.177 939.837 170.687 943.664 170.687H953.674V177.057H944.854C942.287 177.057 940.514 177.477 939.534 178.317C938.6 179.157 938.134 180.207 938.134 181.467C938.134 182.867 938.67 183.987 939.744 184.827C940.864 185.62 942.38 186.017 944.294 186.017C946.114 186.017 947.747 185.597 949.194 184.757C950.64 183.87 951.69 182.587 952.344 180.907L954.024 185.947C953.23 188.373 951.784 190.217 949.684 191.477C947.584 192.737 944.877 193.367 941.564 193.367ZM973.147 192.807V140.867H984.067V192.807H973.147ZM1003.23 185.107L1003.51 171.807L1021.08 155.147H1034.1L1017.23 172.297L1011.56 176.917L1003.23 185.107ZM994.201 192.807V140.867H1005.12V192.807H994.201ZM1022.27 192.807L1009.53 176.987L1016.39 168.517L1035.5 192.807H1022.27Z" fill="#E48600"/>
<path d="M549.925 117.809L547.416 117.893C545.209 117.969 544.756 118.052 543.634 118.594C542.011 119.379 540.231 121.156 539.429 122.791L538.803 124.065L538.736 165.168C538.688 194.741 538.738 206.586 538.913 207.399C539.435 209.832 541.833 212.436 544.387 213.342C545.236 213.643 546.184 213.764 547.795 213.775L550.027 213.791L550.33 213.083C550.864 211.832 551.836 211.115 553.135 211.01C554.575 210.895 555.606 211.506 556.247 212.857L556.683 213.775L568.13 213.791V213.786H574.885V213.791H577.288V213.786H583.83V213.791H589.499V213.786H596.041V213.791H598.444V213.786H605.198V213.791H619.482L619.917 212.888C620.493 211.694 621.287 211.136 622.588 211.011C624.358 210.842 626.132 212.077 626.132 213.481C626.132 213.789 626.314 213.83 627.304 213.748C629.772 213.543 632.642 211.413 633.899 208.853L634.525 207.577L634.582 166.258C634.638 125.531 634.632 124.92 634.205 123.657C633.139 120.502 629.786 117.853 626.859 117.853C626.286 117.853 626.132 117.941 626.132 118.272C626.132 118.809 625.168 119.957 624.372 120.369C623.59 120.772 622.357 120.778 621.596 120.38C620.837 119.983 619.897 118.97 619.708 118.344L619.561 117.853L556.683 117.869L556.246 118.787C555.052 121.301 551.626 121.312 550.407 118.805L549.925 117.809Z" fill="#E48600"/>
<path d="M553.808 179.416H570.464C571.485 179.416 572.314 178.588 572.314 177.566V176.931C572.314 175.909 571.485 175.08 570.464 175.08H553.808C552.786 175.08 551.957 175.909 551.957 176.931V177.566C551.957 178.588 552.786 179.416 553.808 179.416Z" fill="white"/>
<path opacity="0.3" d="M549.924 117.809L547.416 117.893C545.208 117.968 544.755 118.052 543.633 118.594C542.01 119.379 540.231 121.156 539.429 122.791L538.802 124.065L538.735 165.168C538.722 173.139 538.717 179.724 538.719 185.251C538.719 180.149 538.724 174.3 538.735 167.301L538.802 126.198L539.429 124.924C540.231 123.289 542.01 121.512 543.633 120.727C544.755 120.185 545.208 120.101 547.416 120.026L549.924 119.941L550.408 120.935C551.626 123.443 555.052 123.432 556.246 120.918L556.683 120L588.12 119.992L619.559 119.984L619.706 120.475C619.895 121.101 620.835 122.114 621.594 122.511C622.355 122.909 623.588 122.903 624.37 122.5C625.166 122.088 626.13 120.94 626.13 120.404C626.13 120.072 626.284 119.984 626.857 119.984C629.785 119.984 633.137 122.633 634.203 125.788C634.515 126.712 634.601 127.459 634.604 143.589C634.608 125.453 634.528 124.616 634.203 123.655C633.137 120.5 629.785 117.851 626.857 117.851C626.284 117.851 626.13 117.94 626.13 118.271C626.13 118.807 625.166 119.955 624.37 120.367C623.588 120.77 622.355 120.776 621.594 120.378C620.835 119.981 619.895 118.968 619.706 118.342L619.559 117.851L556.681 117.867L556.244 118.785C555.05 121.299 551.624 121.31 550.405 118.803L549.922 117.809H549.924Z" fill="#F1F1F1"/>
<path opacity="0.3" d="M634.605 141.455C634.604 147.167 634.595 154.369 634.581 164.124L634.525 205.442L633.898 206.719C632.642 209.278 629.771 211.409 627.303 211.613C626.313 211.695 626.131 211.654 626.131 211.346C626.131 209.942 624.357 208.707 622.587 208.877C621.286 209.001 620.492 209.559 619.917 210.753L619.481 211.656H605.197V211.652H598.443V211.656H596.04V211.652H589.498V211.656H583.829V211.652H577.287V211.656H574.884V211.652H568.129V211.656L556.682 211.641L556.246 210.722C555.605 209.371 554.574 208.76 553.134 208.876C551.835 208.98 550.864 209.698 550.329 210.948L550.026 211.656L547.794 211.641C546.184 211.63 545.235 211.509 544.386 211.208C541.832 210.301 539.434 207.697 538.912 205.264C538.784 204.67 538.724 198.093 538.719 183.116C538.719 199.571 538.779 206.777 538.912 207.397C539.434 209.83 541.832 212.434 544.386 213.341C545.235 213.642 546.184 213.763 547.794 213.774L550.026 213.789L550.329 213.081C550.864 211.831 551.835 211.113 553.134 211.008C554.574 210.893 555.605 211.504 556.246 212.855L556.682 213.774L568.129 213.789V213.785H574.884V213.789H577.287V213.785H583.829V213.789H589.498V213.785H596.04V213.789H598.443V213.785H605.197V213.789H619.481L619.917 212.886C620.492 211.692 621.286 211.134 622.587 211.01C624.357 210.84 626.131 212.075 626.131 213.479C626.131 213.787 626.313 213.828 627.303 213.746C629.771 213.541 632.642 211.411 633.898 208.851L634.525 207.575L634.581 166.256C634.596 155.288 634.606 147.401 634.605 141.455Z" fill="#010807"/>
<path d="M594.943 124.947L592.093 125.077L587.266 128.323V138.489L609.243 138.672L608.471 138.564V127.751L604.054 125.025H600.793V138.309H594.943V127.362L594.943 124.947ZM587.266 191.385V205.486L592.095 208.732L594.944 208.862V191.328L600.794 191.279V208.785H604.054L608.471 206.059V191.171L587.266 191.385Z" fill="#F49A19"/>
<path opacity="0.3" d="M598.752 121.453C582.775 121.453 580.803 121.533 580.054 122.211C578.876 123.277 578.814 131.694 579.975 132.976C580.684 133.76 581.871 133.813 598.593 133.813C614.571 133.813 616.542 133.733 617.291 133.056C618.469 131.989 618.531 123.573 617.371 122.29C616.661 121.507 615.474 121.453 598.752 121.453ZM581.964 124.2H615.382V131.066H581.964V127.633V124.2ZM587.304 125.573C585.166 125.573 584.428 127.749 586.155 128.959C587.22 129.705 588.664 129.285 589.121 128.097C589.51 127.081 588.424 125.573 587.304 125.573ZM598.748 125.573C596.611 125.573 595.872 127.749 597.599 128.959C598.664 129.705 600.109 129.285 600.565 128.097C600.955 127.081 599.869 125.573 598.748 125.573ZM609.735 125.573C607.597 125.573 606.859 127.749 608.586 128.959C609.651 129.705 611.095 129.285 611.552 128.097C611.941 127.081 610.855 125.573 609.735 125.573Z" fill="black"/>
<path d="M598.752 120.174C582.775 120.174 580.803 120.254 580.054 120.932C578.876 121.998 578.814 130.414 579.975 131.697C580.684 132.481 581.871 132.534 598.593 132.534C614.571 132.534 616.542 132.454 617.291 131.776C618.469 130.71 618.531 122.294 617.371 121.011C616.661 120.227 615.474 120.174 598.752 120.174ZM581.964 122.921H615.381V129.787H581.964V126.354V122.921ZM587.304 124.294C585.166 124.294 584.428 126.47 586.155 127.68C587.22 128.426 588.665 128.006 589.121 126.818C589.51 125.802 588.424 124.294 587.304 124.294ZM598.748 124.294C596.611 124.294 595.872 126.47 597.599 127.68C598.664 128.426 600.109 128.006 600.565 126.818C600.955 125.802 599.869 124.294 598.748 124.294ZM609.735 124.294C607.598 124.294 606.859 126.47 608.586 127.68C609.651 128.426 611.096 128.006 611.552 126.818C611.942 125.802 610.856 124.294 609.735 124.294Z" fill="#F49A19"/>
<path d="M581.965 126.353V122.92H615.382V129.787H581.965V126.353Z" fill="#F49A19"/>
<path d="M587.143 128.159C588.227 128.159 589.106 127.28 589.106 126.196C589.106 125.111 588.227 124.232 587.143 124.232C586.059 124.232 585.18 125.111 585.18 126.196C585.18 127.28 586.059 128.159 587.143 128.159Z" fill="white"/>
<path d="M598.35 128.159C599.434 128.159 600.313 127.28 600.313 126.196C600.313 125.111 599.434 124.232 598.35 124.232C597.266 124.232 596.387 125.111 596.387 126.196C596.387 127.28 597.266 128.159 598.35 128.159Z" fill="white"/>
<path d="M609.557 128.159C610.641 128.159 611.52 127.28 611.52 126.196C611.52 125.111 610.641 124.232 609.557 124.232C608.473 124.232 607.594 125.111 607.594 126.196C607.594 127.28 608.473 128.159 609.557 128.159Z" fill="white"/>
<path opacity="0.1" d="M598.752 120.174C582.775 120.174 580.803 120.254 580.054 120.932C579.389 121.533 579.08 124.476 579.145 127.157C579.19 124.885 579.494 122.718 580.054 122.211C580.803 121.534 582.774 121.454 598.752 121.454C615.474 121.454 616.661 121.507 617.37 122.291C617.876 122.85 618.149 124.762 618.199 126.831C618.248 124.322 617.979 121.684 617.37 121.011C616.661 120.227 615.473 120.174 598.752 120.174ZM581.963 129.787V131.067H615.382V129.787H598.673H581.963Z" fill="white"/>
<path d="M552.057 160.375C554.293 160.375 556.105 158.562 556.105 156.326C556.105 154.09 554.293 152.277 552.057 152.277C549.821 152.277 548.008 154.09 548.008 156.326C548.008 158.562 549.821 160.375 552.057 160.375Z" fill="#F49A19"/>
<path d="M548.123 182.123C550.359 182.123 552.172 180.31 552.172 178.074C552.172 175.838 550.359 174.025 548.123 174.025C545.887 174.025 544.074 175.838 544.074 178.074C544.074 180.31 545.887 182.123 548.123 182.123Z" fill="#F49A19"/>
<path d="M598.752 198.975C582.775 198.975 580.803 199.055 580.054 199.732C578.876 200.799 578.814 209.215 579.975 210.498C580.684 211.281 581.871 211.335 598.593 211.335C614.571 211.335 616.542 211.255 617.291 210.577C618.469 209.511 618.531 201.094 617.371 199.812C616.661 199.028 615.474 198.975 598.752 198.975ZM581.964 201.721H615.381V208.588H581.964V205.154V201.721ZM587.304 203.095C585.166 203.095 584.428 205.271 586.155 206.48C587.22 207.227 588.665 206.807 589.121 205.618C589.51 204.603 588.424 203.095 587.304 203.095ZM598.748 203.095C596.611 203.095 595.872 205.271 597.599 206.48C598.664 207.227 600.109 206.807 600.565 205.618C600.955 204.603 599.869 203.095 598.748 203.095ZM609.735 203.095C607.598 203.095 606.859 205.271 608.586 206.48C609.651 207.227 611.096 206.807 611.552 205.618C611.942 204.603 610.856 203.095 609.735 203.095Z" fill="#F49A19"/>
<path d="M581.965 205.154V201.721H615.382V208.587H581.965V205.154Z" fill="#F49A19"/>
<path d="M587.143 206.96C588.227 206.96 589.106 206.081 589.106 204.996C589.106 203.912 588.227 203.033 587.143 203.033C586.059 203.033 585.18 203.912 585.18 204.996C585.18 206.081 586.059 206.96 587.143 206.96Z" fill="white"/>
<path d="M598.35 206.96C599.434 206.96 600.313 206.081 600.313 204.996C600.313 203.912 599.434 203.033 598.35 203.033C597.266 203.033 596.387 203.912 596.387 204.996C596.387 206.081 597.266 206.96 598.35 206.96Z" fill="white"/>
<path d="M609.557 206.96C610.641 206.96 611.52 206.081 611.52 204.996C611.52 203.912 610.641 203.033 609.557 203.033C608.473 203.033 607.594 203.912 607.594 204.996C607.594 206.081 608.473 206.96 609.557 206.96Z" fill="white"/>
<path opacity="0.1" d="M598.752 198.975C582.775 198.975 580.803 199.055 580.054 199.732C579.389 200.334 579.08 203.277 579.145 205.957C579.19 203.686 579.494 201.519 580.054 201.012C580.803 200.334 582.775 200.254 598.752 200.254C615.474 200.254 616.661 200.308 617.37 201.092C617.876 201.65 618.149 203.563 618.199 205.632C618.248 203.122 617.979 200.485 617.37 199.812C616.661 199.028 615.474 198.975 598.752 198.975ZM581.963 208.588V209.868H615.382V208.588H598.673H581.963Z" fill="white"/>
<path opacity="0.3" d="M571.912 139.643V148.052H575.779C579.569 148.052 579.667 148.073 580.72 149.125L581.793 150.198L581.697 162.744L581.601 175.289L580.131 175.397C577.87 175.564 576.931 174.319 574.839 168.384C572.093 160.595 570.267 158.039 565.927 155.907C564.132 155.026 562.58 154.557 560.944 154.401C558.914 154.208 558.381 153.998 557.288 152.963C554.299 150.132 550.173 150.27 547.521 153.29C543.912 157.4 547.024 164.121 552.536 164.121C554.241 164.121 556.608 163.008 557.609 161.735C558.413 160.713 558.438 160.708 560.476 161.135C564.512 161.981 566.137 163.923 568.426 170.634C569.094 172.59 569.758 174.48 569.901 174.831C570.146 175.429 569.632 175.471 562.042 175.471C553.93 175.471 553.92 175.47 553.238 174.603C552.237 173.33 550.304 172.546 548.167 172.546C543.156 172.546 540.143 177.417 542.343 181.961C544.256 185.913 549.693 186.796 552.824 183.665L554.071 182.418H567.705C582.638 182.418 581.784 182.287 581.784 184.571C581.784 186.584 581.095 186.97 577.153 187.171L573.558 187.353L572.953 190.826C572.621 192.737 572.259 194.846 572.149 195.514L571.95 196.729L616.755 195.675C626.754 193.419 631.161 188.202 631.195 178.579C631.221 171.397 628.828 168.059 621.723 165.365C620.935 165.066 620.975 164.993 622.604 163.772C625.892 161.308 627.432 156.863 626.726 151.876C626.394 149.536 625.219 146.772 623.929 145.3C621.745 142.807 616.904 140.711 611.625 139.973L571.912 139.643ZM595.31 148.313L600.155 148.519C603.012 148.64 605.788 148.967 606.923 149.317C611.541 150.741 613.687 154.881 611.763 158.653C610.901 160.343 608.551 161.852 605.777 162.497C603.421 163.045 595.943 163.552 595.58 163.188C595.432 163.04 595.311 159.633 595.311 155.616L595.31 148.313ZM552.354 153.755C553.437 153.755 553.947 154.002 554.776 154.931C555.354 155.577 555.827 156.523 555.827 157.033C555.827 158.516 554.851 160.002 553.59 160.442C552.258 160.906 552.249 160.907 551.216 160.489C550.065 160.024 548.881 158.33 548.881 157.148C548.881 156.517 549.295 155.642 549.931 154.931C550.761 154.002 551.27 153.755 552.354 153.755ZM595.31 170.999L601.252 171.185C608.056 171.399 611.242 172.157 613.437 174.084C615.18 175.614 615.784 176.912 615.784 179.127C615.784 183.943 611.844 186.443 603.112 187.166C597.992 187.59 595.887 187.625 595.554 187.292C595.42 187.158 595.31 183.438 595.31 179.024L595.31 170.999ZM548.534 175.645C549.385 175.679 550.155 176.128 550.891 177.002C552.066 178.399 552.055 179.87 550.857 181.293C550.069 182.23 549.646 182.418 548.33 182.418C547.015 182.418 546.592 182.23 545.804 181.293C544.242 179.437 544.74 177.054 546.905 176.027C547.484 175.752 548.024 175.624 548.534 175.645Z" fill="black"/>
<path d="M571.912 138.361V146.77H575.779C579.569 146.77 579.667 146.792 580.72 147.844L581.793 148.917L581.697 161.462L581.601 174.007L580.131 174.116C577.87 174.282 576.931 173.038 574.839 167.102C572.093 159.314 570.267 156.758 565.927 154.626C564.132 153.744 562.58 153.275 560.944 153.12C558.914 152.927 558.381 152.717 557.288 151.682C554.299 148.85 550.173 148.989 547.521 152.009C543.912 156.119 547.024 162.84 552.536 162.84C554.241 162.84 556.608 161.727 557.609 160.454C558.413 159.431 558.438 159.426 560.476 159.854C564.512 160.7 566.137 162.642 568.426 169.352C569.094 171.309 569.758 173.198 569.901 173.55C570.146 174.148 569.632 174.19 562.042 174.19C553.93 174.19 553.92 174.189 553.238 173.322C552.237 172.049 550.304 171.265 548.167 171.265C543.156 171.265 540.143 176.136 542.343 180.68C544.256 184.631 549.693 185.515 552.824 182.383L554.071 181.136H567.705C582.638 181.136 581.784 181.006 581.784 183.29C581.784 185.303 581.095 185.689 577.153 185.889L573.558 186.072L572.953 189.545C572.621 191.455 572.259 193.565 572.149 194.233L571.95 195.448L616.755 194.393C626.754 192.138 631.161 186.921 631.195 177.298C631.221 170.116 628.828 166.778 621.723 164.084C620.935 163.785 620.975 163.712 622.604 162.491C625.892 160.027 627.432 155.582 626.726 150.595C626.394 148.255 625.219 145.49 623.929 144.019C621.745 141.526 616.904 139.43 611.625 138.691L571.912 138.361ZM595.31 147.032L600.155 147.237C603.012 147.358 605.788 147.686 606.923 148.036C611.541 149.46 613.687 153.6 611.763 157.372C610.901 159.062 608.551 160.571 605.777 161.216C603.421 161.764 595.943 162.27 595.58 161.907C595.432 161.759 595.311 158.352 595.311 154.335L595.31 147.032ZM552.354 152.473C553.437 152.473 553.947 152.721 554.776 153.649C555.354 154.296 555.827 155.242 555.827 155.752C555.827 157.234 554.851 158.721 553.59 159.161C552.258 159.625 552.249 159.625 551.216 159.208C550.065 158.743 548.881 157.048 548.881 155.867C548.881 155.236 549.295 154.361 549.931 153.649C550.761 152.721 551.27 152.473 552.354 152.473ZM595.31 169.718L601.252 169.904C608.056 170.118 611.242 170.876 613.437 172.803C615.18 174.333 615.784 175.631 615.784 177.846C615.784 182.662 611.844 185.162 603.112 185.885C597.992 186.309 595.887 186.344 595.554 186.011C595.42 185.877 595.31 182.156 595.31 177.742L595.31 169.718ZM548.534 174.363C549.385 174.398 550.155 174.846 550.891 175.721C552.066 177.118 552.055 178.589 550.857 180.012C550.069 180.949 549.646 181.137 548.33 181.137C547.015 181.137 546.592 180.949 545.804 180.012C544.242 178.156 544.74 175.773 546.905 174.746C547.484 174.471 548.024 174.343 548.534 174.363Z" fill="#FAB44F"/>
<g filter="url(#filter1_d_191_988)">
<rect x="861.004" y="393" width="800.833" height="327.614" rx="50" fill="#312E25"/>
<rect x="862.254" y="394.25" width="798.333" height="325.114" rx="48.75" stroke="#E48600" stroke-width="2.5"/>
</g>
<rect x="935.055" y="478.701" width="652.727" height="156.939" rx="23.75" fill="#171717" stroke="#E48600" stroke-width="2.5"/>
<path d="M1115.9 583.986C1112.12 583.986 1108.6 583.38 1105.33 582.166C1102.11 580.906 1099.31 579.133 1096.93 576.846C1094.55 574.56 1092.68 571.876 1091.33 568.796C1090.02 565.716 1089.37 562.333 1089.37 558.646C1089.37 554.96 1090.02 551.576 1091.33 548.496C1092.68 545.416 1094.55 542.733 1096.93 540.446C1099.36 538.16 1102.18 536.41 1105.4 535.196C1108.62 533.936 1112.14 533.306 1115.97 533.306C1120.22 533.306 1124.04 534.053 1127.45 535.546C1130.9 536.993 1133.8 539.14 1136.13 541.986L1128.85 548.706C1127.17 546.793 1125.3 545.37 1123.25 544.436C1121.2 543.456 1118.96 542.966 1116.53 542.966C1114.24 542.966 1112.14 543.34 1110.23 544.086C1108.32 544.833 1106.66 545.906 1105.26 547.306C1103.86 548.706 1102.76 550.363 1101.97 552.276C1101.22 554.19 1100.85 556.313 1100.85 558.646C1100.85 560.98 1101.22 563.103 1101.97 565.016C1102.76 566.93 1103.86 568.586 1105.26 569.986C1106.66 571.386 1108.32 572.46 1110.23 573.206C1112.14 573.953 1114.24 574.326 1116.53 574.326C1118.96 574.326 1121.2 573.86 1123.25 572.926C1125.3 571.946 1127.17 570.476 1128.85 568.516L1136.13 575.236C1133.8 578.083 1130.9 580.253 1127.45 581.746C1124.04 583.24 1120.19 583.986 1115.9 583.986ZM1158.28 583.146L1137.14 534.146H1149.39L1167.87 577.546H1160.66L1179.42 534.146H1190.69L1169.48 583.146H1158.28ZM1205.21 553.886H1228.8V562.706H1205.21V553.886ZM1206.05 574.046H1232.72V583.146H1194.78V534.146H1231.81V543.246H1206.05V574.046ZM1238.21 567.816V559.066H1258.02V567.816H1238.21ZM1288.87 583.706C1285.56 583.706 1282.71 583.006 1280.33 581.606C1277.95 580.206 1276.13 578.083 1274.87 575.236C1273.61 572.343 1272.98 568.703 1272.98 564.316C1272.98 559.883 1273.63 556.243 1274.94 553.396C1276.29 550.55 1278.16 548.426 1280.54 547.026C1282.92 545.626 1285.7 544.926 1288.87 544.926C1292.42 544.926 1295.59 545.72 1298.39 547.306C1301.24 548.893 1303.48 551.133 1305.11 554.026C1306.79 556.92 1307.63 560.35 1307.63 564.316C1307.63 568.236 1306.79 571.643 1305.11 574.536C1303.48 577.43 1301.24 579.693 1298.39 581.326C1295.59 582.913 1292.42 583.706 1288.87 583.706ZM1266.61 583.146V531.206H1277.53V553.116L1276.83 564.246L1277.04 575.446V583.146H1266.61ZM1286.98 574.746C1288.8 574.746 1290.41 574.326 1291.81 573.486C1293.26 572.646 1294.4 571.456 1295.24 569.916C1296.13 568.33 1296.57 566.463 1296.57 564.316C1296.57 562.123 1296.13 560.256 1295.24 558.716C1294.4 557.176 1293.26 555.986 1291.81 555.146C1290.41 554.306 1288.8 553.886 1286.98 553.886C1285.16 553.886 1283.53 554.306 1282.08 555.146C1280.63 555.986 1279.49 557.176 1278.65 558.716C1277.81 560.256 1277.39 562.123 1277.39 564.316C1277.39 566.463 1277.81 568.33 1278.65 569.916C1279.49 571.456 1280.63 572.646 1282.08 573.486C1283.53 574.326 1285.16 574.746 1286.98 574.746ZM1314.94 583.146V545.486H1325.86V583.146H1314.94ZM1320.4 540.236C1318.39 540.236 1316.76 539.653 1315.5 538.486C1314.24 537.32 1313.61 535.873 1313.61 534.146C1313.61 532.42 1314.24 530.973 1315.5 529.806C1316.76 528.64 1318.39 528.056 1320.4 528.056C1322.41 528.056 1324.04 528.616 1325.3 529.736C1326.56 530.81 1327.19 532.21 1327.19 533.936C1327.19 535.756 1326.56 537.273 1325.3 538.486C1324.09 539.653 1322.45 540.236 1320.4 540.236ZM1358.89 544.926C1361.87 544.926 1364.53 545.533 1366.87 546.746C1369.25 547.913 1371.11 549.733 1372.47 552.206C1373.82 554.633 1374.5 557.76 1374.5 561.586V583.146H1363.58V563.266C1363.58 560.233 1362.9 557.993 1361.55 556.546C1360.24 555.1 1358.37 554.376 1355.95 554.376C1354.22 554.376 1352.66 554.75 1351.26 555.496C1349.9 556.196 1348.83 557.293 1348.04 558.786C1347.29 560.28 1346.92 562.193 1346.92 564.526V583.146H1336V545.486H1346.43V555.916L1344.47 552.766C1345.82 550.246 1347.76 548.31 1350.28 546.956C1352.8 545.603 1355.67 544.926 1358.89 544.926ZM1382.99 567.816V559.066H1402.8V567.816H1382.99ZM1427.48 583.706C1423.05 583.706 1419.59 582.586 1417.12 580.346C1414.65 578.06 1413.41 574.676 1413.41 570.196V537.156H1424.33V570.056C1424.33 571.643 1424.75 572.88 1425.59 573.766C1426.43 574.606 1427.57 575.026 1429.02 575.026C1430.75 575.026 1432.22 574.56 1433.43 573.626L1436.37 581.326C1435.25 582.12 1433.9 582.726 1432.31 583.146C1430.77 583.52 1429.16 583.706 1427.48 583.706ZM1407.6 554.726V546.326H1433.71V554.726H1407.6ZM1459.26 583.706C1455.24 583.706 1451.67 582.866 1448.55 581.186C1445.47 579.506 1443.02 577.22 1441.2 574.326C1439.42 571.386 1438.54 568.05 1438.54 564.316C1438.54 560.536 1439.42 557.2 1441.2 554.306C1443.02 551.366 1445.47 549.08 1448.55 547.446C1451.67 545.766 1455.24 544.926 1459.26 544.926C1463.22 544.926 1466.77 545.766 1469.9 547.446C1473.02 549.08 1475.47 551.343 1477.25 554.236C1479.02 557.13 1479.91 560.49 1479.91 564.316C1479.91 568.05 1479.02 571.386 1477.25 574.326C1475.47 577.22 1473.02 579.506 1469.9 581.186C1466.77 582.866 1463.22 583.706 1459.26 583.706ZM1459.26 574.746C1461.08 574.746 1462.71 574.326 1464.16 573.486C1465.6 572.646 1466.75 571.456 1467.59 569.916C1468.43 568.33 1468.85 566.463 1468.85 564.316C1468.85 562.123 1468.43 560.256 1467.59 558.716C1466.75 557.176 1465.6 555.986 1464.16 555.146C1462.71 554.306 1461.08 553.886 1459.26 553.886C1457.44 553.886 1455.8 554.306 1454.36 555.146C1452.91 555.986 1451.74 557.176 1450.86 558.716C1450.02 560.256 1449.6 562.123 1449.6 564.316C1449.6 566.463 1450.02 568.33 1450.86 569.916C1451.74 571.456 1452.91 572.646 1454.36 573.486C1455.8 574.326 1457.44 574.746 1459.26 574.746ZM1505.13 583.706C1501.11 583.706 1497.54 582.866 1494.42 581.186C1491.34 579.506 1488.89 577.22 1487.07 574.326C1485.29 571.386 1484.41 568.05 1484.41 564.316C1484.41 560.536 1485.29 557.2 1487.07 554.306C1488.89 551.366 1491.34 549.08 1494.42 547.446C1497.54 545.766 1501.11 544.926 1505.13 544.926C1509.09 544.926 1512.64 545.766 1515.77 547.446C1518.89 549.08 1521.34 551.343 1523.12 554.236C1524.89 557.13 1525.78 560.49 1525.78 564.316C1525.78 568.05 1524.89 571.386 1523.12 574.326C1521.34 577.22 1518.89 579.506 1515.77 581.186C1512.64 582.866 1509.09 583.706 1505.13 583.706ZM1505.13 574.746C1506.95 574.746 1508.58 574.326 1510.03 573.486C1511.47 572.646 1512.62 571.456 1513.46 569.916C1514.3 568.33 1514.72 566.463 1514.72 564.316C1514.72 562.123 1514.3 560.256 1513.46 558.716C1512.62 557.176 1511.47 555.986 1510.03 555.146C1508.58 554.306 1506.95 553.886 1505.13 553.886C1503.31 553.886 1501.67 554.306 1500.23 555.146C1498.78 555.986 1497.61 557.176 1496.73 558.716C1495.89 560.256 1495.47 562.123 1495.47 564.316C1495.47 566.463 1495.89 568.33 1496.73 569.916C1497.61 571.456 1498.78 572.646 1500.23 573.486C1501.67 574.326 1503.31 574.746 1505.13 574.746ZM1533.08 583.146V531.206H1544V583.146H1533.08Z" fill="#E48600"/>
<g clip-path="url(#clip0_191_988)">
<path d="M1053.16 502.203H964.429C958.775 502.203 954.191 506.786 954.191 512.441L954.191 587.519C954.191 593.174 958.775 597.757 964.429 597.757H991.73L991.73 607.995C991.73 609.879 993.259 611.408 995.143 611.408H1022.44C1024.33 611.408 1025.86 609.879 1025.86 607.995L1025.86 597.757H1053.16C1058.81 597.757 1063.4 593.174 1063.4 587.519L1063.4 512.441C1063.4 506.786 1058.81 502.203 1053.16 502.203Z" fill="#B44E0F"/>
<path d="M1046.33 502.203H964.429C958.775 502.203 954.191 506.786 954.191 512.441L954.191 587.519C954.191 593.174 958.775 597.757 964.429 597.757H991.73L991.73 607.995C991.73 609.879 993.259 611.408 995.143 611.408H1015.62C1017.5 611.408 1019.03 609.879 1019.03 607.995L1019.03 597.757H1046.33C1051.99 597.757 1056.57 593.174 1056.57 587.519L1056.57 512.441C1056.57 506.786 1051.99 502.203 1046.33 502.203Z" fill="#E48600"/>
<path d="M1039.51 584.106H971.256C969.373 584.106 967.844 582.577 967.844 580.694L967.844 519.266C967.844 517.382 969.373 515.854 971.256 515.854H1039.51C1041.39 515.854 1042.92 517.382 1042.92 519.266L1042.92 580.694C1042.92 582.577 1041.39 584.106 1039.51 584.106Z" fill="#FAB44F"/>
<path d="M974.669 584.106H971.256C969.373 584.106 967.844 582.577 967.844 580.694L967.844 519.266C967.844 517.382 969.373 515.854 971.256 515.854H974.669C972.785 515.854 971.256 517.382 971.256 519.266L971.256 580.694C971.256 582.577 972.785 584.106 974.669 584.106Z" fill="#B44E0F"/>
<path d="M988.316 536.329C988.316 534.445 989.845 532.916 991.729 532.916H1022.44C1024.33 532.916 1025.86 534.445 1025.86 536.329C1025.86 538.212 1024.33 539.741 1022.44 539.741H991.729C989.845 539.741 988.316 538.212 988.316 536.329ZM1022.44 546.567H991.729C989.845 546.567 988.316 548.095 988.316 549.979C988.316 551.863 989.845 553.392 991.729 553.392H1022.44C1024.33 553.392 1025.86 551.863 1025.86 549.979C1025.86 548.095 1024.33 546.567 1022.44 546.567ZM1022.44 560.217H991.729C989.845 560.217 988.316 561.746 988.316 563.63C988.316 565.514 989.845 567.042 991.729 567.042H1022.44C1024.33 567.042 1025.86 565.514 1025.86 563.63C1025.86 561.746 1024.33 560.217 1022.44 560.217Z" fill="#FAB44F"/>
<path d="M1019.03 597.758H991.73L991.73 604.583H1019.03L1019.03 597.758Z" fill="#FAB44F"/>
<path d="M1025.86 597.758H1019.03L1019.03 604.583H1025.86V597.758Z" fill="#B44E0F"/>
<g filter="url(#filter2_d_191_988)">
<path d="M995.804 521.303H998.894L998.894 524.394H995.804L995.804 521.303ZM992.713 521.303H995.804L995.804 524.394H992.713L992.713 521.303ZM992.713 524.394H995.804V527.485H992.713V524.394ZM992.713 527.485H995.804V530.576H992.713V527.485ZM992.713 530.576H995.804L995.804 533.667H992.713L992.713 530.576ZM992.713 533.667H995.804V536.758H992.713V533.667ZM995.804 533.667H998.894V536.758H995.804V533.667ZM1001.98 521.303H1005.07L1005.07 524.394H1001.98L1001.98 521.303ZM1001.98 524.394H1005.07V527.485H1001.98V524.394ZM1001.98 527.485H1005.07V530.576H1001.98V527.485ZM1001.98 530.576H1005.07L1005.07 533.667H1001.98L1001.98 530.576ZM1005.07 533.667H1008.16V536.758H1005.07V533.667ZM1008.16 530.576H1011.25L1011.25 533.667H1008.16L1008.16 530.576ZM1008.16 527.485H1011.25V530.576H1008.16V527.485ZM1008.16 524.394H1011.25V527.485H1008.16V524.394ZM1008.16 521.303H1011.25L1011.25 524.394H1008.16L1008.16 521.303ZM1014.33 521.303H1017.42L1017.42 524.394H1014.33L1014.33 521.303ZM1014.33 524.394H1017.42V527.485H1014.33V524.394ZM1014.33 527.485H1017.42V530.576H1014.33V527.485ZM1014.33 530.576H1017.42L1017.42 533.667H1014.33L1014.33 530.576ZM1014.33 533.667H1017.42V536.758H1014.33V533.667ZM1017.42 521.303H1020.51L1020.51 524.394H1017.42L1017.42 521.303ZM1017.42 533.667H1020.51V536.758H1017.42V533.667ZM1017.42 527.485H1020.51V530.576H1017.42V527.485ZM1020.51 521.303H1023.6L1023.6 524.394H1020.51L1020.51 521.303ZM1020.51 533.667H1023.6V536.758H1020.51V533.667Z" fill="#E48600"/>
</g>
<g filter="url(#filter3_d_191_988)">
<path d="M994.282 543.145H997.373L997.373 546.236H994.282L994.282 543.145ZM994.282 546.236H997.373V549.327H994.282V546.236ZM994.282 549.327H997.373V552.418H994.282V549.327ZM994.282 552.418H997.373L997.373 555.509H994.282L994.282 552.418ZM994.282 555.509H997.373V558.6H994.282V555.509ZM997.373 543.145H1000.46L1000.46 546.236H997.373L997.373 543.145ZM1000.46 543.145H1003.56L1003.56 546.236H1000.46L1000.46 543.145ZM1000.46 546.236H1003.56V549.327H1000.46V546.236ZM1000.46 552.418H1003.56L1003.56 555.509H1000.46L1000.46 552.418ZM1000.46 555.509H1003.56V558.6H1000.46V555.509ZM997.373 555.509H1000.46V558.6H997.373V555.509ZM997.373 549.327H1000.46V552.418H997.373V549.327ZM1006.63 543.145H1009.72L1009.72 546.236H1006.63L1006.63 543.145ZM1006.63 546.236H1009.72V549.327H1006.63V546.236ZM1006.63 549.327H1009.72V552.418H1006.63V549.327ZM1006.63 552.418H1009.72L1009.72 555.509H1006.63L1006.63 552.418ZM1006.63 555.509H1009.72V558.6H1006.63V555.509ZM1012.81 555.509H1015.9V558.6H1012.81V555.509ZM1012.81 552.418H1015.9L1015.9 555.509H1012.81L1012.81 552.418ZM1012.81 549.327H1015.9V552.418H1012.81V549.327ZM1012.81 546.236H1015.9V549.327H1012.81V546.236ZM1015.9 543.145H1018.99L1018.99 546.236H1015.9L1015.9 543.145ZM1018.99 546.236H1022.08V549.327H1018.99V546.236ZM1018.99 549.327H1022.08V552.418H1018.99V549.327ZM1018.99 552.418H1022.08L1022.08 555.509H1018.99L1018.99 552.418ZM1018.99 555.509H1022.08V558.6H1018.99V555.509ZM1012.81 543.145H1015.9L1015.9 546.236H1012.81L1012.81 543.145Z" fill="#E48600"/>
</g>
<g filter="url(#filter4_d_191_988)">
<path d="M986.631 563.622H989.722L989.722 566.713H986.631L986.631 563.622ZM989.722 563.622H992.812L992.812 566.713H989.722L989.722 563.622ZM992.812 563.622H995.903L995.903 566.713H992.812L992.812 563.622ZM989.722 566.713H992.812V569.803H989.722V566.713ZM989.722 569.803H992.812V572.894H989.722V569.803ZM989.722 572.894H992.812L992.812 575.985H989.722L989.722 572.894ZM989.722 575.985H992.812V579.076H989.722V575.985ZM998.982 563.622H1002.07L1002.07 566.713H998.982L998.982 563.622ZM1002.07 563.622H1005.16L1005.16 566.713H1002.07L1002.07 563.622ZM1005.16 563.622H1008.25L1008.25 566.713H1005.16L1005.16 563.622ZM1005.16 566.713H1008.25V569.803H1005.16V566.713ZM1005.16 569.803H1008.25V572.894H1005.16V569.803ZM1005.16 572.894H1008.25L1008.25 575.985H1005.16L1005.16 572.894ZM1005.16 575.985H1008.25V579.076H1005.16V575.985ZM1002.07 575.985H1005.16V579.076H1002.07V575.985ZM998.982 575.985H1002.07V579.076H998.982V575.985ZM998.982 572.894H1002.07L1002.07 575.985H998.982L998.982 572.894ZM998.982 569.803H1002.07V572.894H998.982V569.803ZM998.982 566.713H1002.07V569.803H998.982V566.713ZM1011.33 563.622H1014.42L1014.42 566.713H1011.33L1011.33 563.622ZM1014.42 563.622H1017.52L1017.52 566.713H1014.42L1014.42 563.622ZM1017.52 563.622H1020.61L1020.61 566.713H1017.52L1017.52 563.622ZM1017.52 566.713H1020.61V569.803H1017.52V566.713ZM1017.52 569.803H1020.61V572.894H1017.52V569.803ZM1017.52 572.894H1020.61L1020.61 575.985H1017.52L1017.52 572.894ZM1017.52 575.985H1020.61V579.076H1017.52V575.985ZM1014.42 575.985H1017.52V579.076H1014.42V575.985ZM1011.33 575.985H1014.42V579.076H1011.33V575.985ZM1011.33 572.894H1014.42L1014.42 575.985H1011.33L1011.33 572.894ZM1011.33 569.803H1014.42V572.894H1011.33V569.803ZM1011.33 566.713H1014.42V569.803H1011.33V566.713ZM1023.69 563.622H1026.78V566.713H1023.69L1023.69 563.622ZM1023.69 566.713H1026.78V569.803H1023.69V566.713ZM1023.69 569.803H1026.78V572.894H1023.69V569.803ZM1023.69 572.894H1026.78V575.985H1023.69L1023.69 572.894ZM1023.69 575.985H1026.78L1026.78 579.076H1023.69V575.985ZM1026.78 575.985H1029.87L1029.87 579.076H1026.78L1026.78 575.985Z" fill="#E48600"/>
</g>
</g>
<g filter="url(#filter5_d_191_988)">
<rect y="393" width="800.833" height="327.614" rx="50" fill="#312E25"/>
<rect x="1.25" y="394.25" width="798.333" height="325.114" rx="48.75" stroke="#E48600" stroke-width="2.5"/>
</g>
<rect x="74.0508" y="478.701" width="652.727" height="156.939" rx="23.75" fill="#171717" stroke="#E48600" stroke-width="2.5"/>
<path d="M266.981 554.857H290.501V563.957H266.981V554.857ZM267.821 581.807H256.481V532.807H293.511V541.907H267.821V581.807ZM300.418 581.807V544.147H311.338V581.807H300.418ZM305.878 538.897C303.871 538.897 302.238 538.313 300.978 537.147C299.718 535.98 299.088 534.533 299.088 532.807C299.088 531.08 299.718 529.633 300.978 528.467C302.238 527.3 303.871 526.717 305.878 526.717C307.885 526.717 309.518 527.277 310.778 528.397C312.038 529.47 312.668 530.87 312.668 532.597C312.668 534.417 312.038 535.933 310.778 537.147C309.565 538.313 307.931 538.897 305.878 538.897ZM321.473 581.807V544.147H331.903V554.787L330.433 551.707C331.553 549.047 333.349 547.04 335.823 545.687C338.296 544.287 341.306 543.587 344.853 543.587V553.667C344.386 553.62 343.966 553.597 343.593 553.597C343.219 553.55 342.823 553.527 342.403 553.527C339.416 553.527 336.989 554.39 335.123 556.117C333.303 557.797 332.393 560.433 332.393 564.027V581.807H321.473ZM399.644 543.587C402.631 543.587 405.268 544.193 407.554 545.407C409.888 546.573 411.708 548.393 413.014 550.867C414.368 553.293 415.044 556.42 415.044 560.247V581.807H404.124V561.927C404.124 558.893 403.494 556.653 402.234 555.207C400.974 553.76 399.201 553.037 396.914 553.037C395.328 553.037 393.904 553.41 392.644 554.157C391.384 554.857 390.404 555.93 389.704 557.377C389.004 558.823 388.654 560.667 388.654 562.907V581.807H377.734V561.927C377.734 558.893 377.104 556.653 375.844 555.207C374.631 553.76 372.881 553.037 370.594 553.037C369.008 553.037 367.584 553.41 366.324 554.157C365.064 554.857 364.084 555.93 363.384 557.377C362.684 558.823 362.334 560.667 362.334 562.907V581.807H351.414V544.147H361.844V554.437L359.884 551.427C361.191 548.86 363.034 546.923 365.414 545.617C367.841 544.263 370.594 543.587 373.674 543.587C377.128 543.587 380.138 544.473 382.704 546.247C385.318 547.973 387.044 550.633 387.884 554.227L384.034 553.177C385.294 550.237 387.301 547.903 390.054 546.177C392.854 544.45 396.051 543.587 399.644 543.587ZM432.759 581.807L419.179 544.147H429.469L440.739 576.557H435.839L447.599 544.147H456.839L468.249 576.557H463.349L474.969 544.147H484.629L470.979 581.807H460.409L450.399 554.017H453.619L443.259 581.807H432.759ZM511.575 581.807V574.457L510.875 572.847V559.687C510.875 557.353 510.151 555.533 508.705 554.227C507.305 552.92 505.135 552.267 502.195 552.267C500.188 552.267 498.205 552.593 496.245 553.247C494.331 553.853 492.698 554.693 491.345 555.767L487.425 548.137C489.478 546.69 491.951 545.57 494.845 544.777C497.738 543.983 500.678 543.587 503.665 543.587C509.405 543.587 513.861 544.94 517.035 547.647C520.208 550.353 521.795 554.577 521.795 560.317V581.807H511.575ZM500.095 582.367C497.155 582.367 494.635 581.877 492.535 580.897C490.435 579.87 488.825 578.493 487.705 576.767C486.585 575.04 486.025 573.103 486.025 570.957C486.025 568.717 486.561 566.757 487.635 565.077C488.755 563.397 490.505 562.09 492.885 561.157C495.265 560.177 498.368 559.687 502.195 559.687H512.205V566.057H503.385C500.818 566.057 499.045 566.477 498.065 567.317C497.131 568.157 496.665 569.207 496.665 570.467C496.665 571.867 497.201 572.987 498.275 573.827C499.395 574.62 500.911 575.017 502.825 575.017C504.645 575.017 506.278 574.597 507.725 573.757C509.171 572.87 510.221 571.587 510.875 569.907L512.555 574.947C511.761 577.373 510.315 579.217 508.215 580.477C506.115 581.737 503.408 582.367 500.095 582.367ZM531.678 581.807V529.867H542.598V581.807H531.678ZM561.763 574.107L562.043 560.807L579.613 544.147H592.633L575.763 561.297L570.093 565.917L561.763 574.107ZM552.733 581.807V529.867H563.653V581.807H552.733ZM580.803 581.807L568.063 565.987L574.923 557.517L594.033 581.807H580.803ZM616.061 582.367C611.768 582.367 607.988 581.527 604.721 579.847C601.501 578.167 599.005 575.88 597.231 572.987C595.458 570.047 594.571 566.71 594.571 562.977C594.571 559.197 595.435 555.86 597.161 552.967C598.935 550.027 601.338 547.74 604.371 546.107C607.405 544.427 610.835 543.587 614.661 543.587C618.348 543.587 621.661 544.38 624.601 545.967C627.588 547.507 629.945 549.747 631.671 552.687C633.398 555.58 634.261 559.057 634.261 563.117C634.261 563.537 634.238 564.027 634.191 564.587C634.145 565.1 634.098 565.59 634.051 566.057H603.461V559.687H628.311L624.111 561.577C624.111 559.617 623.715 557.913 622.921 556.467C622.128 555.02 621.031 553.9 619.631 553.107C618.231 552.267 616.598 551.847 614.731 551.847C612.865 551.847 611.208 552.267 609.761 553.107C608.361 553.9 607.265 555.043 606.471 556.537C605.678 557.983 605.281 559.71 605.281 561.717V563.397C605.281 565.45 605.725 567.27 606.611 568.857C607.545 570.397 608.828 571.587 610.461 572.427C612.141 573.22 614.101 573.617 616.341 573.617C618.348 573.617 620.098 573.313 621.591 572.707C623.131 572.1 624.531 571.19 625.791 569.977L631.601 576.277C629.875 578.237 627.705 579.753 625.091 580.827C622.478 581.853 619.468 582.367 616.061 582.367ZM641.531 581.807V544.147H651.961V554.787L650.491 551.707C651.611 549.047 653.408 547.04 655.881 545.687C658.355 544.287 661.365 543.587 664.911 543.587V553.667C664.445 553.62 664.025 553.597 663.651 553.597C663.278 553.55 662.881 553.527 662.461 553.527C659.475 553.527 657.048 554.39 655.181 556.117C653.361 557.797 652.451 560.433 652.451 564.027V581.807H641.531Z" fill="#E48600"/>
<path d="M162.555 501.883C164.864 501.896 168.151 501.968 169.809 502.124C178.976 503.095 190.821 507.98 197.855 513.712L201.704 516.809L204.019 515.911C206.85 514.766 207.889 515.303 211.724 520.223C213.175 522.105 214.401 523.65 214.476 523.762C214.544 523.814 226.581 517.202 241.15 508.996C259.519 498.673 268.062 494.199 269.048 494.318C271.327 494.578 273.151 496.534 275.343 500.932C277.625 505.562 277.76 506.152 277.067 508.364C276.471 510.381 276.702 510.292 245.658 524.576C227.011 533.173 220.671 536.338 220.985 536.905C221.225 537.361 221.847 539.893 222.364 542.559C223.481 548.064 222.997 549.521 219.83 549.92C218.216 550.123 218.112 550.257 218.412 552.648C218.886 556.412 217.989 565.691 216.752 570.339C206.538 608.348 161.286 623.569 130.154 599.5C118.852 590.724 111.753 578.201 109.92 563.62C108.582 552.983 109.838 543.659 113.924 534.161C116.132 529.027 122.341 520.476 126.798 516.334C136.264 507.617 149.953 502.071 162.555 501.883ZM147.063 513.847C142.029 515.815 133.98 521.319 130.457 525.162C119.679 536.958 115.47 553.695 119.612 568.289C124.87 586.932 139.694 599.575 159.051 601.937C166.388 602.835 176.561 601.192 183.141 597.997C197.785 590.874 207.3 577.719 209.26 561.933C209.973 556.015 208.905 546.073 206.899 540.741C200.297 522.996 183.644 511.25 164.25 510.532C160.963 510.46 150.648 512.425 147.063 513.847Z" fill="#E48600"/>
<path d="M178.547 556.878V572.236H163.49H148.433V556.878V541.52H163.49H178.547V556.878ZM165.297 544.35C165.357 545.435 166.381 546.458 166.742 545.796C166.983 545.435 166.983 544.832 166.802 544.531C166.381 543.808 165.297 543.748 165.297 544.35ZM168.067 545.495C167.826 546.097 168.007 546.338 168.428 546.218C169.332 545.916 169.814 544.531 169.031 544.531C168.73 544.531 168.248 544.953 168.067 545.495ZM156.503 545.615C153.974 547.663 153.251 550.373 154.576 553.204C155.54 555.433 156.804 554.168 156.443 551.277C156.082 548.386 157.286 546.76 159.756 546.76C160.84 546.76 162.225 547.241 162.887 547.844C163.851 548.747 164.273 548.807 164.875 548.205C165.417 547.603 165.236 547.181 163.911 545.977C161.864 544.23 158.37 544.049 156.503 545.615ZM168.308 548.145C168.308 548.446 168.73 548.747 169.211 548.747C169.693 548.747 170.115 548.446 170.115 548.145C170.115 547.784 169.693 547.543 169.211 547.543C168.73 547.543 168.308 547.784 168.308 548.145ZM165.598 549.349C165.357 549.711 165.899 550.795 166.742 551.819C168.79 554.228 168.73 556.155 166.682 557.781C165.056 559.046 164.453 559.046 161.201 558.083C159.575 557.541 159.394 558.805 160.9 559.95C162.707 561.275 166.2 560.974 168.188 559.287C171.079 556.818 171.079 553.204 168.188 550.072C166.742 548.627 166.14 548.446 165.598 549.349ZM157.648 554.469C156.684 555.553 156.262 556.818 156.262 558.625C156.262 560.733 156.624 561.516 158.37 563.202C160.117 564.888 160.478 565.069 160.84 564.226C161.081 563.624 160.599 562.479 159.635 561.335C157.828 559.227 157.708 558.022 159.033 556.095C160.057 554.589 163.309 554.228 164.574 555.493C165.116 556.035 165.477 556.035 166.019 555.433C166.682 554.83 166.501 554.469 165.297 553.445C163.249 551.759 159.515 552.301 157.648 554.469ZM169.994 560.552C170.416 563.503 170.175 564.708 168.91 565.732C167.103 567.177 165.357 567.117 163.67 565.491C162.586 564.527 162.104 564.346 161.562 564.888C161.02 565.43 161.141 565.912 162.044 566.876C163.791 568.803 165.778 569.345 168.067 568.623C171.801 567.358 173.608 563.322 171.861 560.13C171.079 558.685 169.753 558.986 169.994 560.552ZM156.262 564.949C156.262 565.671 157.467 566.454 157.888 566.033C158.31 565.611 157.527 564.407 156.804 564.407C156.503 564.407 156.262 564.648 156.262 564.949ZM156.985 567.96C156.804 568.442 157.045 568.683 157.527 568.502C157.949 568.382 158.431 567.9 158.551 567.478C158.732 566.996 158.491 566.756 158.009 566.936C157.587 567.057 157.105 567.538 156.985 567.96ZM159.274 567.96C159.274 568.683 160.478 569.466 160.9 569.044C161.321 568.623 160.539 567.418 159.816 567.418C159.515 567.418 159.274 567.659 159.274 567.96Z" fill="#FAB44F"/>
<path d="M180.871 527.181V529.59H178.462H176.053V527.181V524.772H178.462H180.871V527.181Z" fill="#F49A19"/>
<path d="M170.637 527.181V529.59H168.228H165.818V527.181V524.772H168.228H170.637V527.181Z" fill="#F49A19"/>
<path d="M160.391 527.181C160.391 529.53 160.33 529.59 158.343 529.59C156.416 529.59 156.295 529.469 156.054 527.181L155.813 524.772H158.102C160.391 524.772 160.391 524.772 160.391 527.181Z" fill="#F49A19"/>
<path d="M150.152 527.181C150.152 529.53 150.092 529.59 148.044 529.59C145.997 529.59 145.936 529.53 145.936 527.181C145.936 524.832 145.997 524.772 148.044 524.772C150.092 524.772 150.152 524.832 150.152 527.181Z" fill="#F49A19"/>
<path d="M184.307 533.203C188.402 535.672 188.402 535.552 188.402 556.993C188.402 574.821 188.342 576.387 187.258 578.134C184.969 581.988 184.789 581.988 163.287 581.988C144.857 581.988 143.713 581.928 141.846 580.784C138.292 578.615 138.111 577.471 138.111 556.873C138.111 530.131 136.184 531.999 163.407 531.999C181.175 531.999 182.5 532.059 184.307 533.203ZM145.52 538.865C144.435 539.286 144.375 574.159 145.459 575.243C146.483 576.267 180.332 576.267 181.356 575.243C181.898 574.701 182.078 569.822 182.078 556.873C182.078 542.237 181.958 539.226 181.235 538.804C180.332 538.323 146.845 538.383 145.52 538.865Z" fill="#F49A19"/>
<path d="M195.508 539.588C195.749 539.829 195.93 540.913 195.93 542.057C195.93 543.985 195.869 544.045 193.34 544.045H190.81L190.87 541.816C190.931 539.708 191.051 539.588 192.978 539.347C194.123 539.287 195.267 539.347 195.508 539.588Z" fill="#F49A19"/>
<path d="M135.699 541.576C135.699 544.045 135.699 544.045 133.411 544.045C131.242 544.045 131.182 543.985 131.242 541.816C131.303 539.648 131.423 539.528 133.471 539.347L135.699 539.166V541.576Z" fill="#F49A19"/>
<path d="M195.508 549.826C195.749 550.067 195.93 551.151 195.93 552.296C195.93 554.223 195.869 554.283 193.34 554.283H190.81L190.87 552.055C190.931 549.887 191.051 549.766 192.978 549.585C194.123 549.465 195.267 549.585 195.508 549.826Z" fill="#F49A19"/>
<path d="M135.699 551.814C135.699 554.283 135.699 554.283 133.411 554.283C131.242 554.283 131.182 554.223 131.242 552.055C131.303 549.887 131.423 549.766 133.471 549.585L135.699 549.405V551.814Z" fill="#F49A19"/>
<path d="M195.93 562.052V564.521H193.34H190.81L190.87 562.293C190.931 560.065 190.991 560.004 193.46 559.824L195.93 559.643V562.052Z" fill="#F49A19"/>
<path d="M135.699 562.112C135.699 564.521 135.699 564.521 133.411 564.521H131.122L131.363 562.112C131.604 559.824 131.724 559.703 133.651 559.703C135.639 559.703 135.699 559.763 135.699 562.112Z" fill="#F49A19"/>
<path d="M195.93 572.292V574.762H193.34H190.75L190.81 572.473C190.87 570.305 190.931 570.245 193.4 570.064L195.93 569.883V572.292Z" fill="#F49A19"/>
<path d="M135.699 572.353C135.699 574.762 135.699 574.762 133.411 574.762H131.122L131.363 572.353C131.604 570.064 131.724 569.943 133.651 569.943C135.639 569.943 135.699 570.004 135.699 572.353Z" fill="#F49A19"/>
<path d="M180.871 586.806V589.215H178.462H176.053V586.806V584.397H178.462H180.871V586.806Z" fill="#F49A19"/>
<path d="M170.637 586.745V589.215H168.167H165.758L165.939 586.926C166.12 584.818 166.24 584.698 168.348 584.517L170.637 584.336V586.745Z" fill="#F49A19"/>
<path d="M160.391 586.806C160.391 589.155 160.33 589.215 158.283 589.215C156.235 589.215 156.175 589.155 156.175 586.806C156.175 584.457 156.235 584.397 158.283 584.397C160.33 584.397 160.391 584.457 160.391 586.806Z" fill="#F49A19"/>
<path d="M150.152 586.806C150.152 589.155 150.092 589.215 148.044 589.215C145.997 589.215 145.936 589.155 145.936 586.806C145.936 584.457 145.997 584.397 148.044 584.397C150.092 584.397 150.152 584.457 150.152 586.806Z" fill="#F49A19"/>
<defs>
<filter id="filter0_d_191_988" x="430.004" y="0.318359" width="819.832" height="346.613" filterUnits="userSpaceOnUse" color-interpolation-filters="sRGB">
<feFlood flood-opacity="0" result="BackgroundImageFix"/>
<feColorMatrix in="SourceAlpha" type="matrix" values="0 0 0 0 0 0 0 0 0 0 0 0 0 0 0 0 0 0 127 0" result="hardAlpha"/>
<feOffset dx="15" dy="15"/>
<feGaussianBlur stdDeviation="2"/>
<feComposite in2="hardAlpha" operator="out"/>
<feColorMatrix type="matrix" values="0 0 0 0 0.0784314 0 0 0 0 0.0745098 0 0 0 0 0.0745098 0 0 0 1 0"/>
<feBlend mode="normal" in2="BackgroundImageFix" result="effect1_dropShadow_191_988"/>
<feBlend mode="normal" in="SourceGraphic" in2="effect1_dropShadow_191_988" result="shape"/>
</filter>
<filter id="filter1_d_191_988" x="861.004" y="393" width="819.832" height="346.613" filterUnits="userSpaceOnUse" color-interpolation-filters="sRGB">
<feFlood flood-opacity="0" result="BackgroundImageFix"/>
<feColorMatrix in="SourceAlpha" type="matrix" values="0 0 0 0 0 0 0 0 0 0 0 0 0 0 0 0 0 0 127 0" result="hardAlpha"/>
<feOffset dx="15" dy="15"/>
<feGaussianBlur stdDeviation="2"/>
<feComposite in2="hardAlpha" operator="out"/>
<feColorMatrix type="matrix" values="0 0 0 0 0.0784314 0 0 0 0 0.0745098 0 0 0 0 0.0745098 0 0 0 1 0"/>
<feBlend mode="normal" in2="BackgroundImageFix" result="effect1_dropShadow_191_988"/>
<feBlend mode="normal" in="SourceGraphic" in2="effect1_dropShadow_191_988" result="shape"/>
</filter>
<filter id="filter2_d_191_988" x="992.711" y="521.303" width="32.3906" height="16.9551" filterUnits="userSpaceOnUse" color-interpolation-filters="sRGB">
<feFlood flood-opacity="0" result="BackgroundImageFix"/>
<feColorMatrix in="SourceAlpha" type="matrix" values="0 0 0 0 0 0 0 0 0 0 0 0 0 0 0 0 0 0 127 0" result="hardAlpha"/>
<feOffset dx="1" dy="1"/>
<feGaussianBlur stdDeviation="0.25"/>
<feComposite in2="hardAlpha" operator="out"/>
<feColorMatrix type="matrix" values="0 0 0 0 0.705882 0 0 0 0 0.305882 0 0 0 0 0.0588235 0 0 0 0.5 0"/>
<feBlend mode="normal" in2="BackgroundImageFix" result="effect1_dropShadow_191_988"/>
<feBlend mode="normal" in="SourceGraphic" in2="effect1_dropShadow_191_988" result="shape"/>
</filter>
<filter id="filter3_d_191_988" x="994.281" y="543.145" width="29.3008" height="16.9551" filterUnits="userSpaceOnUse" color-interpolation-filters="sRGB">
<feFlood flood-opacity="0" result="BackgroundImageFix"/>
<feColorMatrix in="SourceAlpha" type="matrix" values="0 0 0 0 0 0 0 0 0 0 0 0 0 0 0 0 0 0 127 0" result="hardAlpha"/>
<feOffset dx="1" dy="1"/>
<feGaussianBlur stdDeviation="0.25"/>
<feComposite in2="hardAlpha" operator="out"/>
<feColorMatrix type="matrix" values="0 0 0 0 0.705882 0 0 0 0 0.305882 0 0 0 0 0.0588235 0 0 0 0.5 0"/>
<feBlend mode="normal" in2="BackgroundImageFix" result="effect1_dropShadow_191_988"/>
<feBlend mode="normal" in="SourceGraphic" in2="effect1_dropShadow_191_988" result="shape"/>
</filter>
<filter id="filter4_d_191_988" x="986.629" y="563.621" width="44.7383" height="16.9551" filterUnits="userSpaceOnUse" color-interpolation-filters="sRGB">
<feFlood flood-opacity="0" result="BackgroundImageFix"/>
<feColorMatrix in="SourceAlpha" type="matrix" values="0 0 0 0 0 0 0 0 0 0 0 0 0 0 0 0 0 0 127 0" result="hardAlpha"/>
<feOffset dx="1" dy="1"/>
<feGaussianBlur stdDeviation="0.25"/>
<feComposite in2="hardAlpha" operator="out"/>
<feColorMatrix type="matrix" values="0 0 0 0 0.705882 0 0 0 0 0.305882 0 0 0 0 0.0588235 0 0 0 0.5 0"/>
<feBlend mode="normal" in2="BackgroundImageFix" result="effect1_dropShadow_191_988"/>
<feBlend mode="normal" in="SourceGraphic" in2="effect1_dropShadow_191_988" result="shape"/>
</filter>
<filter id="filter5_d_191_988" x="0" y="393" width="819.832" height="346.613" filterUnits="userSpaceOnUse" color-interpolation-filters="sRGB">
<feFlood flood-opacity="0" result="BackgroundImageFix"/>
<feColorMatrix in="SourceAlpha" type="matrix" values="0 0 0 0 0 0 0 0 0 0 0 0 0 0 0 0 0 0 127 0" result="hardAlpha"/>
<feOffset dx="15" dy="15"/>
<feGaussianBlur stdDeviation="2"/>
<feComposite in2="hardAlpha" operator="out"/>
<feColorMatrix type="matrix" values="0 0 0 0 0.0784314 0 0 0 0 0.0745098 0 0 0 0 0.0745098 0 0 0 1 0"/>
<feBlend mode="normal" in2="BackgroundImageFix" result="effect1_dropShadow_191_988"/>
<feBlend mode="normal" in="SourceGraphic" in2="effect1_dropShadow_191_988" result="shape"/>
</filter>
<clipPath id="clip0_191_988">
<rect width="109.205" height="109.205" fill="white" transform="translate(954.191 502.203)"/>
</clipPath>
</defs>
</svg>
